<svg xmlns="http://www.w3.org/2000/svg" version="1.1" xmlns:xlink="http://www.w3.org/1999/xlink" width="95" height="120"><rect width="95" height="120" stroke-width="2" stroke="#d3d3d3" fill="white" rx="7" ry="7"></rect><svg xmlns="http://www.w3.org/2000/svg" version="1.1" xmlns:xlink="http://www.w3.org/1999/xlink" x="27" y="30"><svg width="40" height="40" viewBox="0 0 40 40" fill="none" xmlns="http://www.w3.org/2000/svg">
<g clip-path="url(#clip0_1_12)">
<path fill-rule="evenodd" clip-rule="evenodd" d="M8.13173 15.775C9.21261 15.775 10.2061 15.4058 11.0017 14.7917L15.8052 18.6274C15.4808 19.2652 15.294 19.9834 15.294 20.746C15.294 20.7953 15.2997 20.8427 15.3014 20.8915L9.32338 22.2955C8.80118 21.1711 7.84866 20.2885 6.67635 19.8568L7.61657 15.7456C7.7858 15.7641 7.95767 15.775 8.13173 15.775ZM8.13173 8.57417C9.51459 8.57417 10.6403 9.69637 10.6403 11.0757C10.6403 12.455 9.51459 13.5772 8.13173 13.5772C6.74888 13.5772 5.6236 12.455 5.6236 11.0757C5.6236 9.69637 6.74888 8.57417 8.13173 8.57417ZM16.4821 8.11527C17.1291 8.96362 17.9032 9.58516 19.2219 9.8423V16.1482C18.3428 16.2871 17.8557 16.5685 17.3278 16.9539L12.4298 13.0814C12.719 12.4722 12.8623 11.7939 12.8623 11.0757C12.8623 10.6674 12.8403 10.2735 12.7419 9.89549L16.4821 8.11527ZM27.6711 10.3025C27.6289 10.5548 27.6017 10.812 27.6017 11.0757C27.6017 11.7803 27.7621 12.4463 28.0412 13.0467L23.1362 17.1649C22.6166 16.7245 21.8592 16.3975 21.4197 16.2146V9.8423C22.2988 9.61197 23.1247 9.09021 23.7555 8.37461L27.6711 10.3025ZM26.5933 30.1126C26.4157 30.1126 26.2408 30.1245 26.068 30.1438L23.0759 24.295C23.4975 23.9302 23.8553 23.4942 24.1261 23.0027L30.2447 24.5904C30.2439 24.6282 30.239 24.6643 30.239 24.7021C30.239 25.7148 30.5647 26.6507 31.112 27.419L28.5973 30.5663C27.9885 30.2783 27.3107 30.1126 26.5933 30.1126ZM15.9652 31.1043L18.8012 25.241C19.1845 25.3421 19.585 25.4234 19.9999 25.4234C20.3876 25.4234 20.7625 25.3821 21.1234 25.2933L23.9876 30.8085C22.9885 31.4744 22.2592 32.7592 21.9964 33.6383H17.5643C17.337 32.7592 16.7625 31.7641 15.9652 31.1043ZM19.9999 18.2445C21.3828 18.2445 22.5085 19.3667 22.5085 20.746C22.5085 22.1254 21.3828 23.2476 19.9999 23.2476C18.617 23.2476 17.4918 22.1254 17.4918 20.746C17.4918 19.3667 18.617 18.2445 19.9999 18.2445ZM29.4074 14.7689C30.105 15.3161 30.9586 15.6718 31.8913 15.7539L32.9643 20.4454C32.0474 20.8726 31.2878 21.5816 30.8069 22.466L24.6992 20.881C24.7006 20.8357 24.7063 20.7918 24.7063 20.746C24.7063 20.106 24.5766 19.4955 24.3432 18.939L29.4074 14.7689ZM29.7995 11.0757C29.7995 9.69637 30.9247 8.57417 32.3076 8.57417C33.6905 8.57417 34.8162 9.69637 34.8162 11.0757C34.8162 12.455 33.6905 13.5772 32.3076 13.5772C30.9247 13.5772 29.7995 12.455 29.7995 11.0757ZM17.6206 5.27747C17.6206 3.89813 18.7458 2.77593 20.1291 2.77593C21.512 2.77593 22.6373 3.89813 22.6373 5.27747C22.6373 6.65681 21.512 7.779 20.1291 7.779C18.7458 7.779 17.6206 6.65681 17.6206 5.27747ZM9.75151 24.4524L15.8803 23.0129C16.137 23.4766 16.4724 23.8893 16.8645 24.2405L13.9902 30.2278C13.6601 30.1544 13.3186 30.1126 12.9669 30.1126C12.2342 30.1126 11.5428 30.2858 10.9239 30.5852L8.45833 27.4994C9.22228 26.699 9.70404 25.6313 9.75151 24.4524ZM2.54668 24.2625C2.54668 22.8832 3.67195 21.761 5.05481 21.761C6.43767 21.761 7.56338 22.8832 7.56338 24.2625C7.56338 25.6419 6.43767 26.7641 5.05481 26.7641C3.67195 26.7641 2.54668 25.6419 2.54668 24.2625ZM15.4755 34.812C15.4755 36.1913 14.3498 37.3135 12.9669 37.3135C11.5841 37.3135 10.4588 36.1913 10.4588 34.812C10.4588 33.4326 11.5841 32.3104 12.9669 32.3104C14.3498 32.3104 15.4755 33.4326 15.4755 34.812ZM29.1019 34.812C29.1019 36.1913 27.9762 37.3135 26.5933 37.3135C25.2105 37.3135 24.0852 36.1913 24.0852 34.812C24.0852 33.4326 25.2105 32.3104 26.5933 32.3104C27.9762 32.3104 29.1019 33.4326 29.1019 34.812ZM34.945 27.2036C33.5621 27.2036 32.4368 26.0814 32.4368 24.7021C32.4368 23.3227 33.5621 22.2005 34.945 22.2005C36.3278 22.2005 37.4535 23.3227 37.4535 24.7021C37.4535 26.0814 36.3278 27.2036 34.945 27.2036ZM35.1199 20.0115L34.0716 15.4296C35.7946 14.7307 37.014 13.0441 37.014 11.0757C37.014 8.4845 34.9028 6.37637 32.3076 6.37637C30.7625 6.37637 29.3929 7.12714 28.5344 8.27922L24.6861 6.42955C24.7797 6.05988 24.8351 5.67571 24.8351 5.27747C24.8351 2.68626 22.7239 0.578125 20.1291 0.578125C17.534 0.578125 15.4228 2.68626 15.4228 5.27747C15.4228 5.55922 15.4522 5.83395 15.5001 6.10252L11.6425 7.95659C10.7797 6.98955 9.52778 6.37637 8.13173 6.37637C5.53701 6.37637 3.4258 8.4845 3.4258 11.0757C3.4258 12.7087 4.26492 14.1482 5.53437 14.9909L4.47986 19.6019C2.15591 19.8867 0.348877 21.866 0.348877 24.2625C0.348877 26.8537 2.46008 28.9619 5.05481 28.9619C5.59723 28.9619 6.11591 28.8652 6.60118 28.6959L9.22272 31.9768C8.62184 32.7663 8.26096 33.7465 8.26096 34.812C8.26096 37.4032 10.3722 39.423 12.9669 39.423C15.1458 39.423 16.9784 38.0339 17.512 35.8361H22.0487C22.5823 38.0339 24.4144 39.423 26.5933 39.423C29.1885 39.423 31.2997 37.3592 31.2997 34.768C31.2997 33.6867 30.9283 32.7144 30.3116 31.9197L32.7696 28.8542C33.421 29.1948 34.1599 29.3957 34.945 29.3957C37.5401 29.3957 39.6513 27.2907 39.6513 24.6994C39.6513 22.1671 37.6337 20.1043 35.1199 20.0115Z" fill="#FAE041"></path>
</g>
<defs>
<clipPath id="clip0_1_12">
<rect width="40" height="40" fill="white"></rect>
</clipPath>
<linearGradient x1="0%" y1="0%" x2="100%" y2="100%" id="goldGradient"><stop stop-color="#ad7615" offset="0"></stop><stop stop-color="#fff700" offset="0.5"></stop><stop stop-color="#ad7615" offset="1"></stop><animate attributeName="x1" from="50%" to="0%" dur="4s" repeatCount="indefinite"></animate><animate attributeName="y1" from="50%" to="0%" dur="4s" repeatCount="indefinite"></animate></linearGradient><linearGradient x1="0%" y1="0%" x2="100%" y2="100%" id="silverGradient"><stop stop-color="#838280" offset="0"></stop><stop stop-color="#e0e0e0" offset="0.5"></stop><stop stop-color="#838280" offset="1"></stop><animate attributeName="x1" from="50%" to="0%" dur="4s" repeatCount="indefinite"></animate><animate attributeName="y1" from="50%" to="0%" dur="4s" repeatCount="indefinite"></animate></linearGradient><linearGradient x1="0%" y1="0%" x2="100%" y2="100%" id="bronzeGradient"><stop stop-color="#8e5b3d" offset="0"></stop><stop stop-color="#e9b582" offset="0.5"></stop><stop stop-color="#8e5b3d" offset="1"></stop><animate attributeName="x1" from="50%" to="0%" dur="4s" repeatCount="indefinite"></animate><animate attributeName="y1" from="50%" to="0%" dur="4s" repeatCount="indefinite"></animate></linearGradient></defs>
</svg></svg><circle r="8" cx="24" cy="90" fill="url(#goldGradient)"></circle><circle r="8" cx="47" cy="90" fill="url(#silverGradient)"></circle><circle r="8" cx="70" cy="90" fill="url(#bronzeGradient)"></circle>
      <text x="6" y="18" font-family="'Ubuntu','Helvetica', 'Arial', sans-serif" font-weight="bold" font-size="13" fill="black">Competitions</text>
      <text x="20.3" y="111" font-family="'Ubuntu', 'Helvetica', 'Arial', sans-serif" font-size="13" fill="#AD7615">5</text>
      <text x="43.3" y="111" font-family="'Ubuntu', 'Helvetica', 'Arial', sans-serif" font-size="13" fill="#838280">9</text>
      <text x="66.3" y="111" font-family="'Ubuntu', 'Helvetica', 'Arial', sans-serif" font-size="13" fill="#8E5B3D">2</text>
    </svg>